PathFileType	4	(X/Y/Z)	s01c0402.trc
DataRate	CameraRate	NumFrames	NumMarkers	Units	OrigDataRate	OrigDataStartFrame	OrigNumFrames
200	200	4	48	mm	200	1000	2000
Frame#	Time	racr			lacr			c7			jug			rlel			rdr			llel			ldr			s2			lic			ric			lasi			rasi			rpsi			lpsi			rgt			lgt			rth1			rth2			rth3			rth4			rlfc			rsh1			rsh2			rsh3			rsh4			rlmal			rmmal			rcal			rtoe			rmt5			lth1			lth2			lth4			lth3			llfc			lsh1			lsh2			lsh3			lsh4			llmal			lmmal			lcal			ltoe			lmt5			SBIKE			LBIKE			RBIKE			
		X1	Y1	Z1	X2	Y2	Z2	X3	Y3	Z3	X4	Y4	Z4	X5	Y5	Z5	X6	Y6	Z6	X7	Y7	Z7	X8	Y8	Z8	X9	Y9	Z9	X10	Y10	Z10	X11	Y11	Z11	X12	Y12	Z12	X13	Y13	Z13	X14	Y14	Z14	X15	Y15	Z15	X16	Y16	Z16	X17	Y17	Z17	X18	Y18	Z18	X19	Y19	Z19	X20	Y20	Z20	X21	Y21	Z21	X22	Y22	Z22	X23	Y23	Z23	X24	Y24	Z24	X25	Y25	Z25	X26	Y26	Z26	X27	Y27	Z27	X28	Y28	Z28	X29	Y29	Z29	X30	Y30	Z30	X31	Y31	Z31	X32	Y32	Z32	X33	Y33	Z33	X34	Y34	Z34	X35	Y35	Z35	X36	Y36	Z36	X37	Y37	Z37	X38	Y38	Z38	X39	Y39	Z39	X40	Y40	Z40	X41	Y41	Z41	X42	Y42	Z42	X43	Y43	Z43	X44	Y44	Z44	X45	Y45	Z45	X46	Y46	Z46	X47	Y47	Z47	X48	Y48	Z48	
1000	5.0000	697.403946	1288.784364	-125.458214	682.195608	1244.191512	-501.783924	688.990588	1386.696707	-317.584587	671.145752	1216.852270	-305.228214	551.081527	1063.936427	12.608961	693.955350	887.407979	-62.271861	497.352707	1020.377121	-581.681153	669.362182	887.619386	-473.398805	155.670804	1204.674488	-258.462477	304.633633	1204.067327	-452.674427	325.058267	1198.301561	-121.665063	308.556758	1152.255386	-428.205632	343.189207	1151.178560	-152.373862	190.522742	1243.039438	-211.186600	180.865665	1244.434256	-315.674534	275.783801	1083.467356	-83.512602	243.519165	1067.517317	-460.756221	360.931400	987.469708	-76.308289	419.799216	927.829067	-81.613569	477.410206	859.075533	-92.640313	457.929609	962.702567	-105.499209	503.268925	754.185494	-115.327803	399.554126	695.483272	-78.611696	331.182972	645.704022	-81.089788	254.008164	601.380434	-89.281847	357.280035	607.113424	-119.254816	145.510648	552.591402	-103.279236	176.265766	523.321442	-181.597697	107.575019	576.609050	-159.503814	183.541094	315.437064	-144.715652	122.073750	403.856562	-76.084176	297.159117	948.386997	-465.583326	357.090728	891.881070	-447.413040	399.787181	924.539376	-464.274445	416.231687	822.398597	-450.913824	470.966532	714.784760	-435.182051	396.672224	627.309919	-463.538567	366.478844	546.125144	-456.047088	335.034938	467.646791	-441.895743	420.990158	529.147997	-432.474362	284.511987	350.606561	-425.969952	320.798523	356.999153	-346.841596	231.689346	328.060032	-384.345746	492.685166	236.933718	-385.436283	386.010286	238.137714	-453.928789	-229.417573	890.797107	-256.915374	-22.885988	80.102034	-456.621761	-22.835957	80.590581	-56.349832	
1001	5.0050	696.755446	1289.321323	-123.385486	683.276428	1243.845589	-500.418881	689.152731	1386.599921	-315.723865	671.970358	1217.141167	-303.093479	550.128703	1063.451935	13.169821	693.796286	887.489936	-62.381485	498.188611	1020.626135	-582.306074	669.475718	887.349403	-473.560501	155.620450	1203.573143	-260.031515	304.711872	1202.101040	-453.283310	324.539430	1198.435291	-122.320691	309.102790	1150.513949	-428.967828	342.810465	1151.377490	-153.002432	190.065273	1242.311607	-212.706884	181.165181	1243.094513	-317.102932	274.887973	1084.540411	-84.321636	242.628104	1064.658504	-460.850337	364.033049	990.866003	-76.621011	424.085872	932.465487	-81.179941	483.412332	865.199597	-92.508710	461.096548	968.009757	-105.855781	509.717973	759.991951	-115.028633	405.356722	702.828786	-78.612320	336.243354	654.140446	-81.144730	258.327471	611.170550	-89.509306	361.744790	615.092707	-119.283055	148.730259	563.067444	-103.804693	179.896793	533.985905	-182.078083	109.927318	586.398341	-159.753694	190.277410	326.582891	-144.924274	127.328027	413.947562	-76.269090	293.098422	944.100516	-465.173971	351.611755	888.088060	-448.627042	397.117712	917.257135	-463.142611	408.200443	814.628858	-450.381502	462.531048	707.358880	-434.682994	389.633847	619.243032	-463.079407	360.260160	537.610544	-455.806449	329.430859	458.914351	-441.919883	414.739734	521.250776	-431.513418	279.420732	341.906979	-425.848647	315.543043	348.528933	-347.389644	227.009847	319.834731	-384.214119	487.306409	226.657006	-385.125206	380.682115	228.630701	-453.670384	-229.404049	890.786897	-256.904426	-22.880588	80.090152	-456.616458	-22.814835	80.565655	-56.350726	
1002	5.0100	696.094614	1289.952059	-121.144602	684.343643	1243.616346	-498.979490	689.326299	1386.543947	-313.680633	672.702111	1217.460209	-300.819397	548.367131	1062.732310	13.371413	693.731236	887.549629	-62.566028	499.290942	1020.886441	-582.988207	669.688791	887.010504	-473.723007	155.343560	1202.817474	-261.679732	304.966368	1200.401394	-453.824487	323.906048	1198.664335	-122.940467	309.622433	1148.725044	-429.613517	342.423737	1151.598251	-153.454889	189.645377	1241.707002	-214.348548	181.498366	1241.990464	-318.801251	274.989951	1085.691592	-84.493862	241.793263	1061.861580	-460.944646	366.409484	994.294919	-76.274872	427.920939	937.312646	-80.626949	488.766170	871.379872	-92.059054	463.604273	973.613366	-105.629512	516.060498	766.000604	-114.552617	411.238809	710.328076	-78.730876	341.271257	662.722173	-81.342047	262.883546	620.770066	-89.729205	366.418190	623.114038	-119.248056	152.424107	573.109916	-104.308554	183.994493	544.365216	-182.577006	112.680099	595.864252	-159.801576	197.551797	337.386278	-145.180944	133.229853	423.646784	-76.466202	289.004779	940.339971	-464.644055	346.084302	884.431229	-449.916465	390.056361	910.291559	-464.154901	400.213781	807.646396	-448.908661	453.719541	700.329262	-433.946078	381.864124	611.140324	-462.320220	353.446854	529.443476	-455.546882	323.396518	450.396313	-441.827797	407.854679	513.654755	-430.661626	273.783589	333.576711	-425.623311	309.711266	340.383489	-347.936882	221.774033	312.100325	-383.994590	481.366231	216.685967	-384.818084	374.703513	219.582221	-453.468461	-229.402494	890.777054	-256.912487	-22.863308	80.078424	-456.602360	-22.821237	80.575251	-56.359705	
1003	5.0150	695.393579	1290.627114	-118.750006	685.432845	1243.493441	-497.449397	689.562569	1386.446835	-311.548196	673.505799	1217.714381	-298.525022	547.440352	1062.194220	14.020364	693.659168	887.629742	-62.753374	500.481524	1021.173641	-583.717358	669.934296	886.724225	-473.922868	154.819821	1202.214311	-263.654858	305.350242	1198.945347	-454.320298	323.188790	1198.990315	-123.495233	310.218282	1146.956724	-430.263944	341.950310	1152.049069	-153.873756	189.281365	1241.222134	-216.068109	181.947649	1240.935950	-320.553056	274.891598	1087.043818	-84.641166	240.914255	1059.395815	-461.104439	368.375827	997.701865	-75.826581	431.274247	942.205065	-80.000491	493.616365	877.635930	-91.420779	465.756375	979.106929	-105.333211	522.127310	772.396386	-114.148318	417.103205	717.967198	-78.811298	346.529414	671.236195	-81.420129	267.663877	630.170003	-89.942059	371.278722	631.190948	-119.171149	156.624731	582.668237	-104.839976	188.625572	554.358497	-183.137862	115.928853	604.631505	-160.313015	205.294108	347.750828	-145.532473	139.568670	432.903927	-76.822454	284.840050	936.867633	-464.343442	340.548781	880.925672	-451.260119	384.822764	903.819434	-464.296844	392.056973	801.080214	-447.662754	444.405583	693.458322	-433.363395	373.549676	603.819110	-462.452491	346.064795	521.596971	-455.172192	316.801352	442.281730	-441.521099	400.327205	506.395612	-430.026849	267.611502	325.648742	-425.297623	303.357436	332.594792	-348.478135	216.043464	304.757798	-383.618714	474.859118	207.207238	-384.536271	368.244623	211.060744	-453.181262	-229.415211	890.767818	-256.927296	-22.857390	80.071233	-456.616285	-22.810854	80.557655	-56.341681	
